<svg width="33" height="36" viewBox="0 0 33 36" fill="none" xmlns="http://www.w3.org/2000/svg">
<path d="M22.75 1L17.25 2.375M17.25 2.375L0.75 6.5V12V25.5L22.75 34.5L32.25 25.5V6.5L17.25 2.375Z" stroke="black" stroke-width="1.5"/>
<line x1="0.75" y1="14" x2="0.75" y2="19" stroke="white" stroke-width="1.5"/>
<path d="M21.5303 16.5303C21.8232 16.2374 21.8232 15.7626 21.5303 15.4697L16.7574 10.6967C16.4645 10.4038 15.9896 10.4038 15.6967 10.6967C15.4038 10.9896 15.4038 11.4645 15.6967 11.7574L19.9393 16L15.6967 20.2426C15.4038 20.5355 15.4038 21.0104 15.6967 21.3033C15.9896 21.5962 16.4645 21.5962 16.7574 21.3033L21.5303 16.5303ZM0 16.75H21V15.25H0L0 16.75Z" fill="#BC2929"/>
</svg>
